# xmcd
#
# Track frame offsets:
#	150
#	14279
#	29091
#	46480
#	62742
#	79341
#	98075
#	116040
#	131691
#	149234
#	166460
#	179263
#	196033
#	213349
#
# Disc length: 3067 seconds
#
# Revision: 1
# Processed by: cddbd v1.5.2PL0 Copyright (c) Steve Scherf et al.
# Submitted via: audiograbber 1.83.01
#
DISCID=cf0bf90e
DTITLE=Star Disc - SD147
DYEAR=2006
DGENRE=Karaoke
TTITLE0=Alan Jackson - Like Red On A Rose
TTITLE1=Carrie Underwood - Before He Cheats
TTITLE2=Kenny Chesney - You Save Me
TTITLE3=Tim McGraw - My Little Girl
TTITLE4=Phil Vassar - The Woman In My Life
TTITLE5=LeAnn Rimes - Some People
TTITLE6=Joe Nichols - I'll Wait For You
TTITLE7=Sugarland - Want To
TTITLE8=Craig Morgan - Little Bit Of Life
TTITLE9=Sarah Buxton - Innocence
TTITLE10=Vince Gill - The Reason Why
TTITLE11=Katrina Elam - Love Is
TTITLE12=Rushlow Harris - That's So You
TTITLE13=Bob Seger - Wait For Me
EXTD=
EXTT0=
EXTT1=
EXTT2=
EXTT3=
EXTT4=
EXTT5=
EXTT6=
EXTT7=
EXTT8=
EXTT9=
EXTT10=
EXTT11=
EXTT12=
EXTT13=
PLAYORDER=
